<svg width="301" height="241" viewBox="0 0 301 241" fill="none" xmlns="http://www.w3.org/2000/svg">
<rect width="300.19" height="240.19" fill="white" fill-opacity="0.01"/>
<path d="M152.987 61.2562C157.536 56.9724 159.596 56.987 163.571 60.878C166.63 63.8731 169.681 66.8777 172.883 70.1585C174.958 73.3929 174.928 76.2015 172.121 79.118C168.982 82.0217 166.846 85.8148 161.827 85.0225C159.788 84.7615 158.024 84.7846 155.822 84.832C152.851 85.4758 151.969 83.8211 151.88 81.8804C151.57 75.138 150.542 68.3372 152.987 61.2562Z" fill="#045468"/>
<path d="M153.5 61.2264C154 66.2264 153.706 69.5446 154.038 73.9235C154.296 77.329 154.5 80.2264 155 84.7264C151.342 89.0157 147.604 92.7085 143.412 96.7819C143.412 94.7264 143.412 93.2264 143.412 91.7264C143.412 84.2264 143 81.2264 143 73.2264C146 67.7264 150.017 64.7484 153.5 61.2264Z" fill="#057085"/>
<path d="M143.173 72.8264C143.694 81.3264 143.719 88.3156 143.694 96.8264C140.145 99.0862 138.694 100.826 133.5 102.726C133.194 99.9107 133.306 100.226 133 96.2264C132.5 91.2264 132.228 92.4428 131.5 83.7264C135.592 80.2952 139.638 76.7477 143.173 72.8264Z" fill="#088A9E"/>
<path d="M157.843 135.558C158.938 138.679 158.704 141.656 158.662 144.61C158.644 145.876 158.888 147.504 157.336 148.007C155.842 148.492 155.002 147.058 154.101 146.17C150.471 142.591 146.893 138.96 143.123 135.066C142.997 133.251 141.865 131.929 142.235 129.994C143.035 128.347 144.486 127.659 145.348 126.018C146.912 124.41 148.479 123.322 149.917 121.585C151.304 120.07 152.371 118.653 154.726 119.569C155.964 121.559 156.893 123.355 157.839 125.496C157.07 126.947 157.273 128.145 157.773 129.539C158.07 131.103 158.13 132.477 158.133 134.261C157.772 135.058 157.353 135.193 156.883 135.216C157.12 135.292 157.371 135.278 157.843 135.558Z" fill="#045468"/>
<path d="M154.788 93.4588C156.8 91.1338 158.68 89.1364 160.832 86.9583C163.545 84.633 165.852 85.0582 168.078 87.1338C170.237 89.1471 172.314 91.2371 174.349 93.3801C176.298 95.433 176.472 97.3191 174.34 99.6989C172.039 102.254 169.899 104.477 167.453 106.835C164.236 106.943 162.001 105.996 160.784 103.042C159.944 101.005 157.84 100.038 156.189 98.7105C154.585 97.4209 153.118 96.0648 154.788 93.4588Z" fill="#0BABBE"/>
<path d="M154.617 93.3154C158.843 97.6754 164.068 101.072 166.985 106.807C165.384 108.837 163.62 110.703 161.57 112.713C159.833 113.904 158.519 114.09 156.794 113.075C153.385 111.068 150.316 108.624 147.182 106.259C145.65 105.103 145.411 103.579 146.678 101.593C149.296 98.6583 151.805 96.0789 154.617 93.3154Z" fill="#0EC6D8"/>
<path d="M174.478 99.8781C172.703 93.153 167.622 89.6634 161.456 86.8208C161.218 86.3273 161.33 85.877 161.497 85.0826C164.76 83.6211 166.693 80.7641 169.7 78.8055C175.827 79.7805 181.655 85.6992 182.258 91.4375C179.785 94.4506 177.281 97.0881 174.478 99.8781Z" fill="#088DA0"/>
<path d="M182.589 91.6509C178.31 87.614 174.331 83.415 170.171 78.9262C171.248 76.2723 173.113 74.1542 173.013 70.8354C176.318 73.6542 179.664 76.8127 182.88 80.0989C187.065 84.3755 187.019 86.6906 182.589 91.6509Z" fill="#067489"/>
<path d="M146.493 101.398C148.869 104.552 152.17 106.692 155.237 108.745C157.067 109.97 158.919 111.221 160.987 112.712C159.452 114.758 157.621 116.659 155.506 118.716C150.712 119.022 147.667 116.126 145.091 113.187C143.676 111.571 142.172 109.634 141.319 107.105C142.923 105.027 144.561 103.292 146.493 101.398Z" fill="#0CB7CA"/>
<path d="M132.044 83.3711C132 83.7264 133.162 95.9137 133.5 102.726C131.5 102.726 127.544 102.726 124.828 102.726C126.044 98.3711 121.274 93.4527 125 89.7264C128.5 86.2264 132.088 83.0157 132.044 83.3711Z" fill="#0BA3B6"/>
<path d="M140.997 106.895C147.029 109.177 150.126 114.654 154.977 118.628C155.221 118.872 155.167 119.326 155.101 119.544C153.932 120.713 152.829 121.663 151.464 122.784C148.85 123.851 147.152 123.51 145.114 121.545C142.876 119.387 141.246 116.647 138.612 114.872C137.268 113.965 136.773 112.59 137.64 110.64C138.726 109.207 139.716 108.118 140.997 106.895Z" fill="#0BA3B6"/>
<path d="M126 88.7264C126 93.2264 126.5 102.726 126 102.726C125.5 102.726 111 102.726 111 102.726C116.5 97.5722 121.5 93.2264 126 88.7264Z" fill="#0CB2C4"/>
<path d="M144.213 129.704C143.815 131.453 143.557 132.818 143.125 134.483C139.665 131.52 136.385 128.252 133.093 124.997C130.766 122.697 129.7 120.133 131.567 116.739C137.58 118.056 144.179 124.798 144.213 129.704Z" fill="#057085"/>
<path d="M137.462 110.45C141.847 114.681 146.051 118.969 151.018 122.797C149.996 124.145 148.792 125.335 147.314 126.693C141.612 124.962 138.579 120.038 134.309 116.675C133.375 115.94 133.998 114.524 134.811 113.18C135.769 112.12 136.479 111.362 137.462 110.45Z" fill="#0993A6"/>
<path d="M134.787 113.027C135.541 116.99 139.73 118.025 141.75 120.891C143.141 122.864 145.012 124.498 146.855 126.572C146.212 127.794 145.383 128.727 144.313 129.874C140.983 124.968 135.947 121.626 132.012 116.804C132.285 115.05 133.446 114.15 134.787 113.027Z" fill="#088599"/>
<path d="M158 131.226C156.5 128.726 157 127.726 157.5 125.726C158 123.726 157.958 129.8 158 131.226Z" fill="#045468"/>
<path d="M158 136.486C157.33 136.486 156.407 135.465 156 134.726C155.971 134.673 157 133.726 157.718 133.486C158 133.726 158.5 134.726 158 136.486Z" fill="#045468"/>
<path d="M138.498 161.01C147.046 160.787 147.095 160.831 147.116 168.68C147.121 170.663 147.136 172.646 147.112 174.629C147.04 180.638 146.072 181.409 140.121 181.171C137.049 181.048 135.497 179.852 135.493 176.747C135.488 172.949 135.378 169.15 135.465 165.355C135.507 163.522 135.849 161.668 138.498 161.01Z" fill="#0DC0D2"/>
<path d="M181.577 165.722C181.925 164.175 181.997 162.972 182.454 161.939C182.94 160.84 184.132 161.045 185.096 161.214C186.19 161.405 186.214 162.346 186.056 163.155C185.008 168.522 183.917 173.881 182.826 179.239C182.469 180.993 181.1 180.952 179.728 180.978C178.18 181.008 177.305 180.461 176.991 178.806C176.061 173.921 174.937 169.072 174.027 164.183C173.818 163.059 173.153 161.393 175.337 161.13C177.353 160.888 177.849 162.07 178.085 163.779C178.407 166.107 178.944 168.406 180.455 170.664C180.793 169.156 181.132 167.648 181.577 165.722Z" fill="#0DC0D2"/>
<path d="M120.991 161.065C124.542 160.981 127.747 160.936 127.917 165.223C128.066 168.956 128.95 173.24 122.812 173.229C119.851 173.223 121.096 175.881 120.86 177.443C120.619 179.032 121.171 180.916 118.576 180.971C115.972 181.026 116.25 179.166 116.237 177.541C116.204 173.399 116.402 169.245 116.168 165.116C115.975 161.712 117.44 160.631 120.991 161.065Z" fill="#0DC0D2"/>
<path d="M158.651 176.709C158.718 172.342 156.646 168.962 155.809 165.265C155.502 163.91 153.53 162.057 156.244 161.242C158.497 160.567 158.89 162.518 159.314 164.183C159.557 165.136 159.98 166.044 160.348 167.044C162.492 166.416 161.911 164.352 162.51 163.015C163.165 161.556 163.976 160.826 165.505 161.174C167.922 161.724 166.355 163.25 166.073 164.26C164.745 169.009 162.305 173.497 162.939 178.685C163.145 180.373 162.254 181.092 160.569 180.939C157.868 180.693 158.975 178.565 158.651 176.709Z" fill="#0DC0D2"/>
<path d="M142.883 172.847C142.877 174.141 142.883 174.973 142.86 175.805C142.832 176.833 142.727 177.917 141.401 177.976C139.979 178.039 139.949 176.877 139.94 175.89C139.91 172.563 139.911 169.236 139.946 165.91C139.955 165.107 139.987 164.172 141.11 164.062C142.428 163.933 142.828 164.791 142.847 165.897C142.883 168.059 142.874 170.222 142.883 172.847Z" fill="#051B28"/>
<path d="M123.601 168.73C121.867 170.759 120.915 170.121 120.8 168.099C120.725 166.789 120.091 164.524 121.774 164.391C124.573 164.17 123.441 166.782 123.601 168.73Z" fill="#051B28"/>
<path d="M96.468 193.296C97.22 193.296 97.8 193.492 98.208 193.884C98.616 194.268 98.82 194.824 98.82 195.552C98.82 196.408 98.564 197.08 98.052 197.568C97.548 198.056 96.848 198.3 95.952 198.3H95.04V198.6L95.088 201H94.116L94.176 198.684L94.116 193.308L96.468 193.296ZM96.312 197.52C96.808 197.44 97.184 197.24 97.44 196.92C97.704 196.6 97.836 196.172 97.836 195.636C97.836 194.644 97.308 194.128 96.252 194.088L95.088 194.124L95.052 197.496L96.312 197.52ZM136.088 193.236C137.144 193.236 137.952 193.56 138.512 194.208C139.08 194.856 139.364 195.788 139.364 197.004C139.364 198.316 139.064 199.328 138.464 200.04C137.864 200.744 137.008 201.096 135.896 201.096C134.856 201.096 134.052 200.76 133.484 200.088C132.924 199.416 132.644 198.46 132.644 197.22C132.644 195.94 132.94 194.956 133.532 194.268C134.132 193.58 134.984 193.236 136.088 193.236ZM136.028 194.016C134.428 194.016 133.628 195.048 133.628 197.112C133.628 198.208 133.82 199.02 134.204 199.548C134.596 200.076 135.184 200.34 135.968 200.34C137.568 200.34 138.368 199.288 138.368 197.184C138.368 196.112 138.172 195.316 137.78 194.796C137.396 194.276 136.812 194.016 136.028 194.016ZM154.863 198.756L154.887 201H153.939L153.987 198.756L153.975 198.252L151.539 193.308H152.571L152.727 193.74L154.407 197.196H154.491L156.339 193.764L156.519 193.308H157.527L154.875 198.216L154.863 198.756ZM184.485 201H183.369L180.801 193.308H181.785L181.965 194.088L183.921 200.028H183.993L186.153 194.136L186.345 193.308H187.305L184.485 201Z" fill="#0DC0D2"/>
<path d="M104.95 200.292L104.854 200.832C104.622 200.968 104.394 201.048 104.17 201.072C103.938 201.04 103.75 200.96 103.606 200.832C103.47 200.696 103.374 200.496 103.318 200.232H103.246C102.766 200.664 102.27 200.944 101.758 201.072C101.166 201.072 100.714 200.932 100.402 200.652C100.098 200.372 99.9503 199.972 99.9583 199.452L99.9703 197.928L99.9343 195.564L100.894 195.48L100.822 199.224C100.822 199.552 100.898 199.808 101.05 199.992C101.21 200.176 101.442 200.268 101.746 200.268C102.242 200.268 102.738 200.028 103.234 199.548V195.564L104.146 195.48L104.086 199.824C104.086 199.992 104.11 200.112 104.158 200.184C104.214 200.248 104.306 200.28 104.434 200.28C104.562 200.28 104.702 200.256 104.854 200.208L104.95 200.292ZM108.55 195.492C108.646 195.492 108.75 195.5 108.862 195.516V196.44L108.754 196.476C108.618 196.436 108.47 196.416 108.31 196.416C108.046 196.416 107.802 196.524 107.578 196.74C107.362 196.948 107.146 197.284 106.93 197.748L106.918 198.588L106.978 201H106.03L106.09 198.672L106.042 195.564L106.942 195.48L106.93 196.608H107.002C107.226 196.208 107.474 195.924 107.746 195.756C108.018 195.58 108.286 195.492 108.55 195.492ZM111.409 195.42C111.865 195.42 112.305 195.508 112.729 195.684L112.597 196.464L112.453 196.5C112.053 196.236 111.669 196.104 111.301 196.104C111.029 196.104 110.809 196.18 110.641 196.332C110.473 196.484 110.389 196.668 110.389 196.884C110.389 197.1 110.473 197.276 110.641 197.412C110.817 197.54 111.085 197.688 111.445 197.856C111.757 198 112.005 198.132 112.189 198.252C112.381 198.364 112.545 198.516 112.681 198.708C112.817 198.9 112.885 199.136 112.885 199.416C112.885 199.712 112.809 199.988 112.657 200.244C112.505 200.5 112.281 200.708 111.985 200.868C111.689 201.02 111.337 201.096 110.929 201.096C110.369 201.096 109.837 200.964 109.333 200.7L109.453 199.884L109.561 199.812C109.785 200.004 110.025 200.152 110.281 200.256C110.545 200.36 110.793 200.412 111.025 200.412C111.321 200.412 111.561 200.332 111.745 200.172C111.929 200.004 112.021 199.808 112.021 199.584C112.021 199.368 111.933 199.196 111.757 199.068C111.589 198.932 111.325 198.78 110.965 198.612C110.653 198.468 110.401 198.34 110.209 198.228C110.017 198.108 109.853 197.948 109.717 197.748C109.581 197.548 109.513 197.3 109.513 197.004C109.513 196.54 109.681 196.16 110.017 195.864C110.361 195.568 110.825 195.42 111.409 195.42ZM119.271 200.292L119.175 200.832C118.943 200.968 118.715 201.048 118.491 201.072C118.259 201.04 118.071 200.96 117.927 200.832C117.791 200.696 117.695 200.496 117.639 200.232H117.567C117.087 200.664 116.591 200.944 116.079 201.072C115.487 201.072 115.035 200.932 114.723 200.652C114.419 200.372 114.271 199.972 114.279 199.452L114.291 197.928L114.255 195.564L115.215 195.48L115.143 199.224C115.143 199.552 115.219 199.808 115.371 199.992C115.531 200.176 115.763 200.268 116.067 200.268C116.563 200.268 117.059 200.028 117.555 199.548V195.564L118.467 195.48L118.407 199.824C118.407 199.992 118.431 200.112 118.479 200.184C118.535 200.248 118.627 200.28 118.755 200.28C118.883 200.28 119.023 200.256 119.175 200.208L119.271 200.292ZM120.528 198.672L120.492 195.564L121.416 195.48L121.392 198.588L121.416 201H120.48L120.528 198.672ZM120.972 193.044C121.132 193.044 121.26 193.092 121.356 193.188C121.452 193.284 121.5 193.416 121.5 193.584C121.5 193.76 121.448 193.9 121.344 194.004C121.248 194.108 121.112 194.16 120.936 194.16C120.768 194.16 120.636 194.112 120.54 194.016C120.452 193.92 120.408 193.784 120.408 193.608C120.408 193.44 120.456 193.304 120.552 193.2C120.656 193.096 120.796 193.044 120.972 193.044ZM125.102 200.268C125.366 200.268 125.654 200.188 125.966 200.028L126.074 200.1L125.978 200.724C125.546 200.924 125.146 201.04 124.778 201.072C124.322 200.984 123.994 200.816 123.794 200.568C123.594 200.32 123.494 199.96 123.494 199.488L123.53 198.636L123.518 196.152H122.762L122.714 196.08L122.774 195.516H123.506V194.628L124.334 194.268L124.43 194.352L124.406 195.516H126.038L126.086 195.588L126.026 196.152H124.406L124.346 199.404C124.338 199.724 124.394 199.948 124.514 200.076C124.634 200.204 124.83 200.268 125.102 200.268ZM143.069 192.552C143.357 192.552 143.669 192.588 144.005 192.66L143.933 193.404L143.861 193.464C143.573 193.32 143.281 193.248 142.985 193.248C142.673 193.248 142.433 193.348 142.265 193.548C142.097 193.74 142.009 194.028 142.001 194.412L141.989 195.516H143.429L143.465 195.588L143.405 196.152H141.977L141.953 198.588L142.013 201H141.065L141.137 198.66L141.113 196.152H140.285L140.237 196.08L140.297 195.516H141.113L141.101 194.556C141.093 193.908 141.261 193.412 141.605 193.068C141.949 192.724 142.437 192.552 143.069 192.552ZM159.938 195.408C160.682 195.408 161.258 195.652 161.666 196.14C162.082 196.62 162.29 197.3 162.29 198.18C162.29 199.108 162.074 199.828 161.642 200.34C161.21 200.844 160.594 201.096 159.794 201.096C159.042 201.096 158.458 200.856 158.042 200.376C157.634 199.888 157.43 199.204 157.43 198.324C157.43 197.396 157.646 196.68 158.078 196.176C158.518 195.664 159.138 195.408 159.938 195.408ZM159.878 196.08C159.374 196.08 158.99 196.252 158.726 196.596C158.462 196.94 158.33 197.444 158.33 198.108C158.33 198.876 158.458 199.452 158.714 199.836C158.978 200.22 159.358 200.412 159.854 200.412C160.358 200.412 160.742 200.244 161.006 199.908C161.27 199.572 161.402 199.068 161.402 198.396C161.402 197.636 161.27 197.06 161.006 196.668C160.75 196.276 160.374 196.08 159.878 196.08ZM168.7 200.292L168.604 200.832C168.372 200.968 168.144 201.048 167.92 201.072C167.688 201.04 167.5 200.96 167.356 200.832C167.22 200.696 167.124 200.496 167.068 200.232H166.996C166.516 200.664 166.02 200.944 165.508 201.072C164.916 201.072 164.464 200.932 164.152 200.652C163.848 200.372 163.7 199.972 163.708 199.452L163.72 197.928L163.684 195.564L164.644 195.48L164.572 199.224C164.572 199.552 164.648 199.808 164.8 199.992C164.96 200.176 165.192 200.268 165.496 200.268C165.992 200.268 166.488 200.028 166.984 199.548V195.564L167.896 195.48L167.836 199.824C167.836 199.992 167.86 200.112 167.908 200.184C167.964 200.248 168.056 200.28 168.184 200.28C168.312 200.28 168.452 200.256 168.604 200.208L168.7 200.292ZM172.3 195.492C172.396 195.492 172.5 195.5 172.612 195.516V196.44L172.504 196.476C172.368 196.436 172.22 196.416 172.06 196.416C171.796 196.416 171.552 196.524 171.328 196.74C171.112 196.948 170.896 197.284 170.68 197.748L170.668 198.588L170.728 201H169.78L169.84 198.672L169.792 195.564L170.692 195.48L170.68 196.608H170.752C170.976 196.208 171.224 195.924 171.496 195.756C171.768 195.58 172.036 195.492 172.3 195.492ZM188.415 198.672L188.379 195.564L189.303 195.48L189.279 198.588L189.303 201H188.367L188.415 198.672ZM188.859 193.044C189.019 193.044 189.147 193.092 189.243 193.188C189.339 193.284 189.387 193.416 189.387 193.584C189.387 193.76 189.335 193.9 189.231 194.004C189.135 194.108 188.999 194.16 188.823 194.16C188.655 194.16 188.523 194.112 188.427 194.016C188.339 193.92 188.295 193.784 188.295 193.608C188.295 193.44 188.343 193.304 188.439 193.2C188.543 193.096 188.683 193.044 188.859 193.044ZM192.761 195.42C193.217 195.42 193.657 195.508 194.081 195.684L193.949 196.464L193.805 196.5C193.405 196.236 193.021 196.104 192.653 196.104C192.381 196.104 192.161 196.18 191.993 196.332C191.825 196.484 191.741 196.668 191.741 196.884C191.741 197.1 191.825 197.276 191.993 197.412C192.169 197.54 192.437 197.688 192.797 197.856C193.109 198 193.357 198.132 193.541 198.252C193.733 198.364 193.897 198.516 194.033 198.708C194.169 198.9 194.237 199.136 194.237 199.416C194.237 199.712 194.161 199.988 194.009 200.244C193.857 200.5 193.633 200.708 193.337 200.868C193.041 201.02 192.689 201.096 192.281 201.096C191.721 201.096 191.189 200.964 190.685 200.7L190.805 199.884L190.913 199.812C191.137 200.004 191.377 200.152 191.633 200.256C191.897 200.36 192.145 200.412 192.377 200.412C192.673 200.412 192.913 200.332 193.097 200.172C193.281 200.004 193.373 199.808 193.373 199.584C193.373 199.368 193.285 199.196 193.109 199.068C192.941 198.932 192.677 198.78 192.317 198.612C192.005 198.468 191.753 198.34 191.561 198.228C191.369 198.108 191.205 197.948 191.069 197.748C190.933 197.548 190.865 197.3 190.865 197.004C190.865 196.54 191.033 196.16 191.369 195.864C191.713 195.568 192.177 195.42 192.761 195.42ZM195.762 198.672L195.726 195.564L196.65 195.48L196.626 198.588L196.65 201H195.714L195.762 198.672ZM196.206 193.044C196.366 193.044 196.494 193.092 196.59 193.188C196.686 193.284 196.734 193.416 196.734 193.584C196.734 193.76 196.682 193.9 196.578 194.004C196.482 194.108 196.346 194.16 196.17 194.16C196.002 194.16 195.87 194.112 195.774 194.016C195.686 193.92 195.642 193.784 195.642 193.608C195.642 193.44 195.69 193.304 195.786 193.2C195.89 193.096 196.03 193.044 196.206 193.044ZM200.66 195.408C201.404 195.408 201.98 195.652 202.388 196.14C202.804 196.62 203.012 197.3 203.012 198.18C203.012 199.108 202.796 199.828 202.364 200.34C201.932 200.844 201.316 201.096 200.516 201.096C199.764 201.096 199.18 200.856 198.764 200.376C198.356 199.888 198.152 199.204 198.152 198.324C198.152 197.396 198.368 196.68 198.8 196.176C199.24 195.664 199.86 195.408 200.66 195.408ZM200.6 196.08C200.096 196.08 199.712 196.252 199.448 196.596C199.184 196.94 199.052 197.444 199.052 198.108C199.052 198.876 199.18 199.452 199.436 199.836C199.7 200.22 200.08 200.412 200.576 200.412C201.08 200.412 201.464 200.244 201.728 199.908C201.992 199.572 202.124 199.068 202.124 198.396C202.124 197.636 201.992 197.06 201.728 196.668C201.472 196.276 201.096 196.08 200.6 196.08ZM207.854 197.268C207.862 196.94 207.786 196.684 207.626 196.5C207.466 196.316 207.23 196.224 206.918 196.224C206.414 196.224 205.87 196.508 205.286 197.076V198.588L205.334 201H204.386L204.446 198.672L204.398 195.564L205.298 195.48V196.284H205.37C205.866 195.844 206.374 195.56 206.894 195.432C207.494 195.432 207.95 195.572 208.262 195.852C208.582 196.132 208.738 196.532 208.73 197.052L208.706 198.612L208.754 201H207.794L207.854 197.268Z" fill="white"/>
</svg>
