<svg width="245" height="106" viewBox="0 0 245 106" fill="none" xmlns="http://www.w3.org/2000/svg">
<path d="M104.99 65.012C105.868 65.012 106.544 65.2407 107.02 65.698C107.496 66.146 107.734 66.7947 107.734 67.644C107.734 68.6427 107.436 69.4267 106.838 69.996C106.25 70.5653 105.434 70.85 104.388 70.85H103.324V71.2L103.38 74H102.246L102.316 71.298L102.246 65.026L104.99 65.012ZM104.808 69.94C105.387 69.8467 105.826 69.6133 106.124 69.24C106.432 68.8667 106.586 68.3673 106.586 67.742C106.586 66.5847 105.97 65.9827 104.738 65.936L103.38 65.978L103.338 69.912L104.808 69.94ZM151.213 64.942C152.445 64.942 153.388 65.32 154.041 66.076C154.704 66.832 155.035 67.9193 155.035 69.338C155.035 70.8687 154.685 72.0493 153.985 72.88C153.285 73.7013 152.286 74.112 150.989 74.112C149.776 74.112 148.838 73.72 148.175 72.936C147.522 72.152 147.195 71.0367 147.195 69.59C147.195 68.0967 147.54 66.9487 148.231 66.146C148.931 65.3433 149.925 64.942 151.213 64.942ZM151.143 65.852C149.276 65.852 148.343 67.056 148.343 69.464C148.343 70.7427 148.567 71.69 149.015 72.306C149.472 72.922 150.158 73.23 151.073 73.23C152.94 73.23 153.873 72.0027 153.873 69.548C153.873 68.2973 153.644 67.3687 153.187 66.762C152.739 66.1553 152.058 65.852 151.143 65.852ZM173.118 71.382L173.146 74H172.04L172.096 71.382L172.082 70.794L169.24 65.026H170.444L170.626 65.53L172.586 69.562H172.684L174.84 65.558L175.05 65.026H176.226L173.132 70.752L173.118 71.382ZM207.677 74H206.375L203.379 65.026H204.527L204.737 65.936L207.019 72.866H207.103L209.623 65.992L209.847 65.026H210.967L207.677 74Z" fill="#0DC0D2"/>
<path d="M114.886 73.174L114.774 73.804C114.504 73.9627 114.238 74.056 113.976 74.084C113.706 74.0467 113.486 73.9533 113.318 73.804C113.16 73.6453 113.048 73.412 112.982 73.104H112.898C112.338 73.608 111.76 73.9347 111.162 74.084C110.472 74.084 109.944 73.9207 109.58 73.594C109.226 73.2673 109.053 72.8007 109.062 72.194L109.076 70.416L109.034 67.658L110.154 67.56L110.07 71.928C110.07 72.3107 110.159 72.6093 110.336 72.824C110.523 73.0387 110.794 73.146 111.148 73.146C111.727 73.146 112.306 72.866 112.884 72.306V67.658L113.948 67.56L113.878 72.628C113.878 72.824 113.906 72.964 113.962 73.048C114.028 73.1227 114.135 73.16 114.284 73.16C114.434 73.16 114.597 73.132 114.774 73.076L114.886 73.174ZM119.086 67.574C119.198 67.574 119.32 67.5833 119.45 67.602V68.68L119.324 68.722C119.166 68.6753 118.993 68.652 118.806 68.652C118.498 68.652 118.214 68.778 117.952 69.03C117.7 69.2727 117.448 69.6647 117.196 70.206L117.182 71.186L117.252 74H116.146L116.216 71.284L116.16 67.658L117.21 67.56L117.196 68.876H117.28C117.542 68.4093 117.831 68.078 118.148 67.882C118.466 67.6767 118.778 67.574 119.086 67.574ZM122.422 67.49C122.954 67.49 123.467 67.5927 123.962 67.798L123.808 68.708L123.64 68.75C123.173 68.442 122.725 68.288 122.296 68.288C121.978 68.288 121.722 68.3767 121.526 68.554C121.33 68.7313 121.232 68.946 121.232 69.198C121.232 69.45 121.33 69.6553 121.526 69.814C121.731 69.9633 122.044 70.136 122.464 70.332C122.828 70.5 123.117 70.654 123.332 70.794C123.556 70.9247 123.747 71.102 123.906 71.326C124.064 71.55 124.144 71.8253 124.144 72.152C124.144 72.4973 124.055 72.8193 123.878 73.118C123.7 73.4167 123.439 73.6593 123.094 73.846C122.748 74.0233 122.338 74.112 121.862 74.112C121.208 74.112 120.588 73.958 120 73.65L120.14 72.698L120.266 72.614C120.527 72.838 120.807 73.0107 121.106 73.132C121.414 73.2533 121.703 73.314 121.974 73.314C122.319 73.314 122.599 73.2207 122.814 73.034C123.028 72.838 123.136 72.6093 123.136 72.348C123.136 72.096 123.033 71.8953 122.828 71.746C122.632 71.5873 122.324 71.41 121.904 71.214C121.54 71.046 121.246 70.8967 121.022 70.766C120.798 70.626 120.606 70.4393 120.448 70.206C120.289 69.9727 120.21 69.6833 120.21 69.338C120.21 68.7967 120.406 68.3533 120.798 68.008C121.199 67.6627 121.74 67.49 122.422 67.49ZM131.593 73.174L131.481 73.804C131.211 73.9627 130.945 74.056 130.683 74.084C130.413 74.0467 130.193 73.9533 130.025 73.804C129.867 73.6453 129.755 73.412 129.689 73.104H129.605C129.045 73.608 128.467 73.9347 127.869 74.084C127.179 74.084 126.651 73.9207 126.287 73.594C125.933 73.2673 125.76 72.8007 125.769 72.194L125.783 70.416L125.741 67.658L126.861 67.56L126.777 71.928C126.777 72.3107 126.866 72.6093 127.043 72.824C127.23 73.0387 127.501 73.146 127.855 73.146C128.434 73.146 129.013 72.866 129.591 72.306V67.658L130.655 67.56L130.585 72.628C130.585 72.824 130.613 72.964 130.669 73.048C130.735 73.1227 130.842 73.16 130.991 73.16C131.141 73.16 131.304 73.132 131.481 73.076L131.593 73.174ZM133.06 71.284L133.018 67.658L134.096 67.56L134.068 71.186L134.096 74H133.004L133.06 71.284ZM133.578 64.718C133.765 64.718 133.914 64.774 134.026 64.886C134.138 64.998 134.194 65.152 134.194 65.348C134.194 65.5533 134.133 65.7167 134.012 65.838C133.9 65.9593 133.741 66.02 133.536 66.02C133.34 66.02 133.186 65.964 133.074 65.852C132.971 65.74 132.92 65.5813 132.92 65.376C132.92 65.18 132.976 65.0213 133.088 64.9C133.209 64.7787 133.373 64.718 133.578 64.718ZM138.397 73.146C138.705 73.146 139.041 73.0527 139.405 72.866L139.531 72.95L139.419 73.678C138.915 73.9113 138.448 74.0467 138.019 74.084C137.487 73.9813 137.104 73.7853 136.871 73.496C136.637 73.2067 136.521 72.7867 136.521 72.236L136.563 71.242L136.549 68.344H135.667L135.611 68.26L135.681 67.602H136.535V66.566L137.501 66.146L137.613 66.244L137.585 67.602H139.489L139.545 67.686L139.475 68.344H137.585L137.515 72.138C137.505 72.5113 137.571 72.7727 137.711 72.922C137.851 73.0713 138.079 73.146 138.397 73.146ZM159.358 64.144C159.694 64.144 160.058 64.186 160.45 64.27L160.366 65.138L160.282 65.208C159.946 65.04 159.605 64.956 159.26 64.956C158.896 64.956 158.616 65.0727 158.42 65.306C158.224 65.53 158.121 65.866 158.112 66.314L158.098 67.602H159.778L159.82 67.686L159.75 68.344H158.084L158.056 71.186L158.126 74H157.02L157.104 71.27L157.076 68.344H156.11L156.054 68.26L156.124 67.602H157.076L157.062 66.482C157.052 65.726 157.248 65.1473 157.65 64.746C158.051 64.3447 158.62 64.144 159.358 64.144ZM179.038 67.476C179.906 67.476 180.578 67.7607 181.054 68.33C181.54 68.89 181.782 69.6833 181.782 70.71C181.782 71.7927 181.53 72.6327 181.026 73.23C180.522 73.818 179.804 74.112 178.87 74.112C177.993 74.112 177.312 73.832 176.826 73.272C176.35 72.7027 176.112 71.9047 176.112 70.878C176.112 69.7953 176.364 68.96 176.868 68.372C177.382 67.7747 178.105 67.476 179.038 67.476ZM178.968 68.26C178.38 68.26 177.932 68.4607 177.624 68.862C177.316 69.2633 177.162 69.8513 177.162 70.626C177.162 71.522 177.312 72.194 177.61 72.642C177.918 73.09 178.362 73.314 178.94 73.314C179.528 73.314 179.976 73.118 180.284 72.726C180.592 72.334 180.746 71.746 180.746 70.962C180.746 70.0753 180.592 69.4033 180.284 68.946C179.986 68.4887 179.547 68.26 178.968 68.26ZM189.261 73.174L189.149 73.804C188.879 73.9627 188.613 74.056 188.351 74.084C188.081 74.0467 187.861 73.9533 187.693 73.804C187.535 73.6453 187.423 73.412 187.357 73.104H187.273C186.713 73.608 186.135 73.9347 185.537 74.084C184.847 74.084 184.319 73.9207 183.955 73.594C183.601 73.2673 183.428 72.8007 183.437 72.194L183.451 70.416L183.409 67.658L184.529 67.56L184.445 71.928C184.445 72.3107 184.534 72.6093 184.711 72.824C184.898 73.0387 185.169 73.146 185.523 73.146C186.102 73.146 186.681 72.866 187.259 72.306V67.658L188.323 67.56L188.253 72.628C188.253 72.824 188.281 72.964 188.337 73.048C188.403 73.1227 188.51 73.16 188.659 73.16C188.809 73.16 188.972 73.132 189.149 73.076L189.261 73.174ZM193.461 67.574C193.573 67.574 193.695 67.5833 193.825 67.602V68.68L193.699 68.722C193.541 68.6753 193.368 68.652 193.181 68.652C192.873 68.652 192.589 68.778 192.327 69.03C192.075 69.2727 191.823 69.6647 191.571 70.206L191.557 71.186L191.627 74H190.521L190.591 71.284L190.535 67.658L191.585 67.56L191.571 68.876H191.655C191.917 68.4093 192.206 68.078 192.523 67.882C192.841 67.6767 193.153 67.574 193.461 67.574ZM212.261 71.284L212.219 67.658L213.297 67.56L213.269 71.186L213.297 74H212.205L212.261 71.284ZM212.779 64.718C212.966 64.718 213.115 64.774 213.227 64.886C213.339 64.998 213.395 65.152 213.395 65.348C213.395 65.5533 213.335 65.7167 213.213 65.838C213.101 65.9593 212.943 66.02 212.737 66.02C212.541 66.02 212.387 65.964 212.275 65.852C212.173 65.74 212.121 65.5813 212.121 65.376C212.121 65.18 212.177 65.0213 212.289 64.9C212.411 64.7787 212.574 64.718 212.779 64.718ZM217.332 67.49C217.864 67.49 218.377 67.5927 218.872 67.798L218.718 68.708L218.55 68.75C218.083 68.442 217.635 68.288 217.206 68.288C216.888 68.288 216.632 68.3767 216.436 68.554C216.24 68.7313 216.142 68.946 216.142 69.198C216.142 69.45 216.24 69.6553 216.436 69.814C216.641 69.9633 216.954 70.136 217.374 70.332C217.738 70.5 218.027 70.654 218.242 70.794C218.466 70.9247 218.657 71.102 218.816 71.326C218.974 71.55 219.054 71.8253 219.054 72.152C219.054 72.4973 218.965 72.8193 218.788 73.118C218.61 73.4167 218.349 73.6593 218.004 73.846C217.658 74.0233 217.248 74.112 216.772 74.112C216.118 74.112 215.498 73.958 214.91 73.65L215.05 72.698L215.176 72.614C215.437 72.838 215.717 73.0107 216.016 73.132C216.324 73.2533 216.613 73.314 216.884 73.314C217.229 73.314 217.509 73.2207 217.724 73.034C217.938 72.838 218.046 72.6093 218.046 72.348C218.046 72.096 217.943 71.8953 217.738 71.746C217.542 71.5873 217.234 71.41 216.814 71.214C216.45 71.046 216.156 70.8967 215.932 70.766C215.708 70.626 215.516 70.4393 215.358 70.206C215.199 69.9727 215.12 69.6833 215.12 69.338C215.12 68.7967 215.316 68.3533 215.708 68.008C216.109 67.6627 216.65 67.49 217.332 67.49ZM220.833 71.284L220.791 67.658L221.869 67.56L221.841 71.186L221.869 74H220.777L220.833 71.284ZM221.351 64.718C221.538 64.718 221.687 64.774 221.799 64.886C221.911 64.998 221.967 65.152 221.967 65.348C221.967 65.5533 221.907 65.7167 221.785 65.838C221.673 65.9593 221.515 66.02 221.309 66.02C221.113 66.02 220.959 65.964 220.847 65.852C220.745 65.74 220.693 65.5813 220.693 65.376C220.693 65.18 220.749 65.0213 220.861 64.9C220.983 64.7787 221.146 64.718 221.351 64.718ZM226.548 67.476C227.416 67.476 228.088 67.7607 228.564 68.33C229.049 68.89 229.292 69.6833 229.292 70.71C229.292 71.7927 229.04 72.6327 228.536 73.23C228.032 73.818 227.313 74.112 226.38 74.112C225.503 74.112 224.821 73.832 224.336 73.272C223.86 72.7027 223.622 71.9047 223.622 70.878C223.622 69.7953 223.874 68.96 224.378 68.372C224.891 67.7747 225.615 67.476 226.548 67.476ZM226.478 68.26C225.89 68.26 225.442 68.4607 225.134 68.862C224.826 69.2633 224.672 69.8513 224.672 70.626C224.672 71.522 224.821 72.194 225.12 72.642C225.428 73.09 225.871 73.314 226.45 73.314C227.038 73.314 227.486 73.118 227.794 72.726C228.102 72.334 228.256 71.746 228.256 70.962C228.256 70.0753 228.102 69.4033 227.794 68.946C227.495 68.4887 227.057 68.26 226.478 68.26ZM234.94 69.646C234.95 69.2633 234.861 68.9647 234.674 68.75C234.488 68.5353 234.212 68.428 233.848 68.428C233.26 68.428 232.626 68.7593 231.944 69.422V71.186L232 74H230.894L230.964 71.284L230.908 67.658L231.958 67.56V68.498H232.042C232.621 67.9847 233.214 67.6533 233.82 67.504C234.52 67.504 235.052 67.6673 235.416 67.994C235.79 68.3207 235.972 68.7873 235.962 69.394L235.934 71.214L235.99 74H234.87L234.94 69.646Z" fill="white"/>
<path d="M124.601 31.0573C133.59 30.8342 133.64 30.8787 133.663 38.7276C133.668 40.7107 133.683 42.694 133.658 44.6769C133.583 50.6854 132.565 51.4569 126.307 51.2185C123.078 51.0955 121.445 49.8992 121.441 46.7946C121.436 42.9969 121.32 39.1974 121.412 35.4022C121.456 33.5693 121.815 31.7158 124.601 31.0573Z" fill="#0DC0D2"/>
<path d="M169.898 35.7695C170.265 34.2229 170.341 33.0197 170.821 31.9864C171.331 30.8881 172.586 31.093 173.598 31.2615C174.749 31.4528 174.774 32.3939 174.608 33.2026C173.506 38.5697 172.359 43.9284 171.212 49.2869C170.836 51.0408 169.397 50.9993 167.955 51.0258C166.327 51.0557 165.407 50.5082 165.076 48.854C164.098 43.9685 162.917 39.1198 161.96 34.231C161.74 33.1067 161.041 31.4411 163.337 31.1781C165.457 30.9354 165.979 32.1179 166.227 33.8262C166.566 36.1549 167.13 38.4539 168.719 40.712C169.075 39.2039 169.43 37.6958 169.898 35.7695Z" fill="#0DBDCF"/>
<path d="M106.192 31.1127C109.926 31.0284 113.296 30.9835 113.475 35.2711C113.631 39.0038 114.561 43.2878 108.107 43.2765C104.994 43.271 106.303 45.929 106.054 47.4903C105.801 49.08 106.381 50.964 103.653 51.0185C100.915 51.0732 101.207 49.2134 101.194 47.5889C101.159 43.4462 101.367 39.2929 101.121 35.1632C100.918 31.7599 102.458 30.6786 106.192 31.1127Z" fill="#0CB7CA"/>
<path d="M145.792 46.7571C145.862 42.3898 143.683 39.0098 142.803 35.3126C142.481 33.9574 140.407 32.1042 143.261 31.2901C145.63 30.6143 146.043 32.5661 146.489 34.2309C146.745 35.184 147.189 36.0912 147.577 37.0917C149.831 36.4633 149.219 34.3997 149.85 33.0628C150.538 31.6035 151.391 30.8734 152.999 31.2216C155.541 31.7719 153.893 33.2979 153.596 34.308C152.2 39.0569 149.634 43.5444 150.3 48.7329C150.517 50.421 149.581 51.1399 147.809 50.9866C144.968 50.7408 146.133 48.6124 145.792 46.7571Z" fill="#0DC0D2"/>
<path d="M129.212 42.8945C129.205 44.1891 129.212 45.0211 129.188 45.8523C129.158 46.8809 129.048 47.9648 127.654 48.0234C126.158 48.0863 126.126 46.9244 126.117 45.9374C126.085 42.6109 126.087 39.2838 126.124 35.9574C126.133 35.1548 126.167 34.2192 127.347 34.1092C128.733 33.9802 129.154 34.8383 129.173 35.9446C129.212 38.1065 129.202 40.2692 129.212 42.8945Z" fill="#051B28"/>
<path d="M108.937 38.7776C107.113 40.8067 106.113 40.1686 105.991 38.1464C105.913 36.8368 105.246 34.5719 107.016 34.4391C109.959 34.2182 108.768 36.8299 108.937 38.7776Z" fill="#043748"/>
<path d="M55.4403 16.7103C59.3966 13.1446 61.1874 13.1568 64.6441 16.3956C67.3049 18.8886 69.9576 21.3895 72.7421 24.1203C74.5473 26.8126 74.5212 29.1503 72.0799 31.5779C69.3504 33.9949 67.4924 37.1521 63.1282 36.4926C61.3542 36.2754 59.8203 36.2946 57.9053 36.3341C55.3217 36.87 54.5551 35.4926 54.4775 33.8772C54.2079 28.2651 53.3138 22.6043 55.4403 16.7103Z" fill="#045468"/>
<path d="M55.8864 16.6855C56.3212 20.8474 56.0658 23.6094 56.3545 27.2542C56.579 30.0888 56.756 32.5005 57.1908 36.2462C54.0095 39.8164 50.7594 42.8902 47.1136 46.2808C47.1136 44.5698 47.1136 43.3213 47.1136 42.0727C47.1136 35.83 46.7552 33.3329 46.7552 26.6739C49.3641 22.0959 52.8574 19.6172 55.8864 16.6855Z" fill="#057085"/>
<path d="M46.9055 26.341C47.3587 33.4161 47.3808 39.2337 47.3587 46.3178C44.2729 48.1988 43.0106 49.6473 38.4937 51.2287C38.2276 48.8851 38.3251 49.1478 38.0589 45.8184C37.6241 41.6565 37.3879 42.669 36.7545 35.4138C40.313 32.5578 43.8315 29.605 46.9055 26.341Z" fill="#088A9E"/>
<path d="M59.6636 78.5571C60.6159 81.1545 60.412 83.6322 60.3754 86.091C60.3596 87.1451 60.5716 88.4998 59.2224 88.9187C57.9227 89.3223 57.1923 88.1291 56.4088 87.3896C53.2526 84.4107 50.141 81.3885 46.8625 78.1469C46.7526 76.6367 45.7683 75.5361 46.0903 73.925C46.786 72.5545 48.0479 71.9814 48.7968 70.6159C50.1575 69.2778 51.5196 68.3715 52.7704 66.9259C53.9765 65.6646 54.9042 64.4854 56.9529 65.2478C58.0292 66.904 58.8372 68.3992 59.6595 70.1811C58.991 71.3895 59.1679 72.3861 59.6024 73.5462C59.8606 74.8488 59.9124 75.9922 59.915 77.4768C59.6016 78.1405 59.237 78.2527 58.8281 78.2722C59.0341 78.3351 59.2528 78.3233 59.6636 78.5571Z" fill="#045468"/>
<path d="M57.0063 43.5147C58.7563 41.5795 60.3908 39.9169 62.2628 38.1039C64.6221 36.1684 66.6277 36.5223 68.5637 38.25C70.4416 39.9258 72.2479 41.6655 74.0174 43.4492C75.7125 45.1579 75.8634 46.7279 74.0096 48.7088C72.0086 50.8353 70.1475 52.6857 68.0204 54.649C65.2231 54.7384 63.2793 53.9505 62.2204 51.4911C61.4904 49.7957 59.6603 48.9911 58.2246 47.8861C56.8301 46.8126 55.5544 45.6839 57.0063 43.5147Z" fill="#0BABBE"/>
<path d="M56.8581 43.3954C60.5328 47.0244 65.0767 49.8516 67.6138 54.6256C66.2209 56.3151 64.6874 57.8684 62.904 59.5414C61.3939 60.5326 60.2509 60.6876 58.7506 59.8423C55.7867 58.1724 53.1172 56.1376 50.3922 54.1693C49.0597 53.2068 48.852 51.9386 49.9535 50.2851C52.2308 47.8426 54.4127 45.6956 56.8581 43.3954Z" fill="#0EC6D8"/>
<path d="M74.1292 48.8579C72.586 43.2601 68.167 40.3556 62.8049 37.9894C62.598 37.5787 62.6956 37.2039 62.8406 36.5426C65.6788 35.3261 67.3596 32.9481 69.9742 31.3178C75.3025 32.1294 80.3713 37.0559 80.8957 41.8323C78.745 44.3402 76.5669 46.5356 74.1292 48.8579Z" fill="#088DA0"/>
<path d="M81.183 42.0099C77.4623 38.6497 74.0015 35.1546 70.3839 31.4183C71.3209 29.2092 72.9422 27.4462 72.8555 24.6838C75.7299 27.03 78.6398 29.6591 81.4363 32.3944C85.0756 35.9541 85.0356 37.8811 81.183 42.0099Z" fill="#067489"/>
<path d="M49.7927 50.1228C51.8589 52.7487 54.7299 54.5294 57.3969 56.2386C58.9883 57.2584 60.5988 58.2994 62.3974 59.5403C61.0624 61.2433 59.4705 62.8257 57.6307 64.5381C53.4617 64.7931 50.8137 62.382 48.5738 59.9355C47.3428 58.5909 46.0353 56.9788 45.2931 54.8731C46.6886 53.1437 48.1124 51.6998 49.7927 50.1228Z" fill="#0CB7CA"/>
<path d="M37.2276 35.118C37.1893 35.4138 38.2002 45.5581 38.4938 51.2288C36.7545 51.2288 33.3142 51.2288 30.9525 51.2288C32.0098 47.6035 27.8614 43.5096 31.1019 40.408C34.1456 37.4947 37.2659 34.8223 37.2276 35.118Z" fill="#0BA3B6"/>
<path d="M45.013 54.699C50.2589 56.5983 52.9525 61.1566 57.1705 64.4651C57.3828 64.6682 57.3363 65.0454 57.2788 65.2271C56.2621 66.1999 55.3029 66.991 54.1155 67.9239C51.8426 68.8125 50.3664 68.528 48.5941 66.8924C46.6477 65.0961 45.2296 62.8161 42.9395 61.3381C41.7704 60.5836 41.3397 59.4391 42.0938 57.8161C43.0381 56.6231 43.8997 55.7167 45.013 54.699Z" fill="#0BA3B6"/>
<path d="M31.9715 39.5756C31.9714 43.3213 32.4065 51.2288 31.9716 51.2288C31.5367 51.2288 18.927 51.2288 18.927 51.2288C23.71 46.9386 28.0581 43.3213 31.9715 39.5756Z" fill="#0CB2C4"/>
<path d="M47.8102 73.6838C47.4638 75.14 47.2397 76.2758 46.8638 77.6616C43.8551 75.1959 41.003 72.4755 38.1395 69.7663C36.1161 67.8519 35.1892 65.717 36.8124 62.892C42.0417 63.9885 47.7809 69.6006 47.8102 73.6838Z" fill="#057085"/>
<path d="M41.9391 57.6574C45.7529 61.1791 49.4082 64.7488 53.7282 67.9352C52.8396 69.0567 51.7919 70.0477 50.507 71.178C45.5481 69.737 42.9107 65.6385 39.1971 62.8394C38.3848 62.2272 38.9264 61.0487 39.634 59.9303C40.4673 59.0476 41.0846 58.4165 41.9391 57.6574Z" fill="#0993A6"/>
<path d="M39.613 59.8022C40.2687 63.101 43.9118 63.9629 45.6685 66.3487C46.8778 67.991 48.5054 69.351 50.1079 71.0773C49.5488 72.0939 48.8279 72.8704 47.8974 73.8255C45.0014 69.7419 40.6215 66.9599 37.1996 62.9463C37.4374 61.4867 38.4472 60.7376 39.613 59.8022Z" fill="#088599"/>
<path d="M59.7997 74.9512C58.4953 72.8703 58.9301 72.0379 59.3649 70.3732C59.7997 68.7084 59.7632 73.764 59.7997 74.9512Z" fill="#045468"/>
<path d="M59.7997 79.3293C59.217 79.3293 58.4145 78.4792 58.0609 77.8645C58.0354 77.8203 58.9301 77.0321 59.5548 76.8322C59.7997 77.0321 60.2345 77.8645 59.7997 79.3293Z" fill="#045468"/>
</svg>
